<svg width="20" height="19" viewBox="0 0 20 19" fill="none" xmlns="http://www.w3.org/2000/svg">
<path d="M19.3024 5.0814H13.721C13.3396 5.0814 13.0233 4.76512 13.0233 4.38372C13.0233 4.00233 13.3396 3.68605 13.721 3.68605H19.3024C19.6838 3.68605 20.0001 4.00233 20.0001 4.38372C20.0001 4.76512 19.6838 5.0814 19.3024 5.0814Z" fill="#292D32"/>
<path d="M4.41867 5.0814H0.697735C0.31634 5.0814 6.10352e-05 4.76512 6.10352e-05 4.38372C6.10352e-05 4.00233 0.31634 3.68605 0.697735 3.68605H4.41867C4.80006 3.68605 5.11634 4.00233 5.11634 4.38372C5.11634 4.76512 4.80006 5.0814 4.41867 5.0814Z" fill="#292D32"/>
<path d="M8.13959 8.33721C5.96284 8.33721 4.1861 6.56047 4.1861 4.38373C4.1861 2.20698 5.96284 0.430237 8.13959 0.430237C10.3163 0.430237 12.0931 2.20698 12.0931 4.38373C12.0931 6.56047 10.3163 8.33721 8.13959 8.33721ZM8.13959 1.82559C6.72563 1.82559 5.58145 2.96977 5.58145 4.38373C5.58145 5.79768 6.72563 6.94187 8.13959 6.94187C9.55354 6.94187 10.6977 5.79768 10.6977 4.38373C10.6977 2.96977 9.55354 1.82559 8.13959 1.82559Z" fill="#292D32"/>
<path d="M19.3023 15.314H15.5814C15.2 15.314 14.8837 14.9977 14.8837 14.6163C14.8837 14.2349 15.2 13.9186 15.5814 13.9186H19.3023C19.6837 13.9186 20 14.2349 20 14.6163C20 14.9977 19.6837 15.314 19.3023 15.314Z" fill="#292D32"/>
<path d="M6.27913 15.314H0.697735C0.31634 15.314 6.10352e-05 14.9977 6.10352e-05 14.6163C6.10352e-05 14.2349 0.31634 13.9186 0.697735 13.9186H6.27913C6.66053 13.9186 6.9768 14.2349 6.9768 14.6163C6.9768 14.9977 6.66053 15.314 6.27913 15.314Z" fill="#292D32"/>
<path d="M11.8605 18.5698C9.68379 18.5698 7.90704 16.793 7.90704 14.6163C7.90704 12.4395 9.68379 10.6628 11.8605 10.6628C14.0373 10.6628 15.814 12.4395 15.814 14.6163C15.814 16.793 14.0373 18.5698 11.8605 18.5698ZM11.8605 12.0581C10.4466 12.0581 9.30239 13.2023 9.30239 14.6163C9.30239 16.0302 10.4466 17.1744 11.8605 17.1744C13.2745 17.1744 14.4187 16.0302 14.4187 14.6163C14.4187 13.2023 13.2745 12.0581 11.8605 12.0581Z" fill="#292D32"/>
</svg>
