<svg width="20" height="23" viewBox="0 0 20 23" fill="none" xmlns="http://www.w3.org/2000/svg">
<path fill-rule="evenodd" clip-rule="evenodd" d="M3.33335 9.48634C3.71144 9.80123 4.12477 10.0682 4.5406 10.2871C6.07535 11.0948 8.03994 11.5 10 11.5C11.9601 11.5 13.9247 11.0948 15.4594 10.2871C15.8753 10.0682 16.2886 9.80123 16.6667 9.48634V11.5C16.6667 12.4276 15.9683 13.321 14.7141 13.9811C13.4638 14.6391 11.7682 15.0088 10 15.0088C8.23185 15.0088 6.53619 14.6391 5.28594 13.9811C4.03177 13.321 3.33335 12.4276 3.33335 11.5V9.48634ZM3.33335 14.7495C3.71144 15.0644 4.12477 15.3314 4.5406 15.5503C6.07535 16.358 8.03994 16.7632 10 16.7632C11.9601 16.7632 13.9247 16.358 15.4594 15.5503C15.8753 15.3314 16.2886 15.0644 16.6667 14.7495V16.7632C16.6667 18.701 13.6819 20.2719 10 20.2719C6.3181 20.2719 3.33335 18.701 3.33335 16.7632V14.7495ZM3.33335 6.23685C3.33335 4.299 6.3181 2.72807 10 2.72807C13.6819 2.72807 16.6667 4.299 16.6667 6.23685C16.6667 7.16448 15.9683 8.0578 14.7141 8.71792C13.4638 9.37593 11.7682 9.74562 10 9.74562C8.23185 9.74562 6.53619 9.37593 5.28594 8.71792C4.03177 8.0578 3.33335 7.16448 3.33335 6.23685Z" fill="black"/>
</svg>
