<svg width="14" height="19" viewBox="0 0 14 19" fill="none" xmlns="http://www.w3.org/2000/svg">
<path fill-rule="evenodd" clip-rule="evenodd" d="M0.333355 7.48634C0.711438 7.80123 1.12477 8.06825 1.5406 8.28711C3.07535 9.09483 5.03994 9.5 7.00002 9.5C8.96013 9.5 10.9247 9.09483 12.4594 8.28711C12.8753 8.06825 13.2886 7.80123 13.6667 7.48634V9.5C13.6667 10.4276 12.9683 11.321 11.7141 11.9811C10.4638 12.6391 8.76816 13.0088 7.00002 13.0088C5.23185 13.0088 3.53619 12.6391 2.28594 11.9811C1.03177 11.321 0.333355 10.4276 0.333355 9.5V7.48634ZM0.333355 12.7495C0.711438 13.0644 1.12477 13.3314 1.5406 13.5503C3.07535 14.358 5.03994 14.7632 7.00002 14.7632C8.96013 14.7632 10.9247 14.358 12.4594 13.5503C12.8753 13.3314 13.2886 13.0644 13.6667 12.7495V14.7632C13.6667 16.701 10.6819 18.2719 7.00002 18.2719C3.3181 18.2719 0.333355 16.701 0.333355 14.7632V12.7495ZM0.333355 4.23685C0.333355 2.299 3.3181 0.728073 7.00002 0.728073C10.6819 0.728073 13.6667 2.299 13.6667 4.23685C13.6667 5.16448 12.9683 6.0578 11.7141 6.71792C10.4638 7.37593 8.76816 7.74562 7.00002 7.74562C5.23185 7.74562 3.53619 7.37593 2.28594 6.71792C1.03177 6.0578 0.333355 5.16448 0.333355 4.23685Z" fill="white"/>
</svg>
