<svg width="39" height="39" viewBox="0 0 39 39" fill="none" xmlns="http://www.w3.org/2000/svg">
<path d="M33.4814 31.2853L37.7605 34.5321C38.6916 32.1153 38.0042 29.278 35.8361 27.6327C34.1688 26.3677 32.0482 26.1117 30.2176 26.7638L29.5693 26.2726L29.4839 26.1117C29.9349 25.4707 30.3261 24.8003 30.6552 24.1081L33.6009 24.0264L34.2042 22.1008L31.8239 20.3483C31.9397 19.628 31.997 18.8992 31.9982 18.1716L34.6393 16.8309L34.3602 14.8322L31.4449 14.2618C31.2012 13.4233 30.877 12.6019 30.4724 11.8109L32.2103 9.40632L31.0476 7.75613L28.1872 8.58732C28.1518 8.54954 28.1165 8.51175 28.0799 8.47397C27.6229 8.0011 27.1403 7.56844 26.6369 7.17479L27.1866 4.34607L25.4377 3.33816L23.2671 5.22844C22.5639 4.94569 21.8424 4.72266 21.1111 4.55935L20.3994 1.76719L18.3872 1.60266L17.2282 4.24979C16.6286 4.28635 16.0314 4.36069 15.4391 4.47525L13.667 2.18766L11.756 2.83725L11.7463 5.75007C10.937 6.16688 10.1582 6.66779 9.42575 7.25644L6.72622 6.04013L5.34416 7.51116L6.72622 10.1327C6.28016 10.7677 5.89382 11.4331 5.56719 12.1193L2.60197 12.2009L1.99869 14.1265L4.39475 15.8913C4.28019 16.6055 4.22169 17.3282 4.21925 18.0509L1.56238 19.3988L1.84147 21.3976L4.75916 21.968C4.93344 22.5749 5.14794 23.1733 5.40632 23.7571L3.48069 26.1446L4.55441 27.8533L7.544 27.155C7.73169 27.3756 7.92791 27.5925 8.13144 27.8033C8.56166 28.2482 9.0126 28.6577 9.4806 29.0318L8.89925 32.0288L10.6482 33.0367L12.9309 31.0477C13.5866 31.3109 14.2581 31.5218 14.9406 31.6802L15.6865 34.6064L17.6986 34.7709L18.9064 32.0129C19.7425 31.9629 20.5749 31.8374 21.3939 31.6375L23.3146 33.8618L25.1891 33.111L25.0879 31.0574L26.275 31.9581C26.1348 33.9044 26.9368 35.8983 28.6016 37.1633C30.7685 38.8074 33.6862 38.7063 35.7642 37.1585L31.4863 33.9129C30.7319 33.3413 30.5577 32.2579 31.1061 31.5339C31.6545 30.81 32.7246 30.7149 33.4778 31.2878L33.4814 31.2853ZM16.8735 28.9283C14.4543 28.6553 12.1302 27.5633 10.3069 25.6754C6.13757 21.3635 6.257 14.5031 10.5702 10.335C14.8833 6.16688 21.7461 6.24 25.9142 10.5519C29.5851 14.3483 29.9276 20.1533 27.0148 24.3336L19.9192 18.9503C20.0533 17.0138 19.2355 15.0382 17.5694 13.7743C15.4025 12.1302 12.4848 12.2314 10.4068 13.7792L14.6847 17.0247C15.4378 17.5963 15.6353 18.6505 15.0868 19.3757C14.5384 20.1008 13.4464 20.2239 12.6932 19.6511L8.41541 16.4056C7.4855 18.8224 8.17166 21.6596 10.3398 23.3049C12.0058 24.5676 14.1435 24.8028 15.9802 24.1434L21.6072 28.4127C20.0788 28.9343 18.4603 29.1062 16.8748 28.927L16.8735 28.9283Z" fill="#EE95C5"/>
</svg>
