<svg width="40" height="37" viewBox="0 0 40 37" fill="none" xmlns="http://www.w3.org/2000/svg">
<path d="M38.6047 9.30233H27.4419C26.6791 9.30233 26.0465 8.66977 26.0465 7.90698C26.0465 7.14419 26.6791 6.51163 27.4419 6.51163H38.6047C39.3674 6.51163 40 7.14419 40 7.90698C40 8.66977 39.3674 9.30233 38.6047 9.30233Z" fill="#0A64D6"/>
<path d="M8.83721 9.30233H1.39535C0.632558 9.30233 0 8.66977 0 7.90698C0 7.14419 0.632558 6.51163 1.39535 6.51163H8.83721C9.6 6.51163 10.2326 7.14419 10.2326 7.90698C10.2326 8.66977 9.6 9.30233 8.83721 9.30233Z" fill="#0A64D6"/>
<path d="M16.279 15.814C11.9256 15.814 8.37207 12.2605 8.37207 7.90698C8.37207 3.55349 11.9256 0 16.279 0C20.6325 0 24.186 3.55349 24.186 7.90698C24.186 12.2605 20.6325 15.814 16.279 15.814ZM16.279 2.7907C13.4511 2.7907 11.1628 5.07907 11.1628 7.90698C11.1628 10.7349 13.4511 13.0233 16.279 13.0233C19.107 13.0233 21.3953 10.7349 21.3953 7.90698C21.3953 5.07907 19.107 2.7907 16.279 2.7907Z" fill="#0A64D6"/>
<path d="M38.6047 29.7674H31.1628C30.4 29.7674 29.7675 29.1349 29.7675 28.3721C29.7675 27.6093 30.4 26.9767 31.1628 26.9767H38.6047C39.3675 26.9767 40 27.6093 40 28.3721C40 29.1349 39.3675 29.7674 38.6047 29.7674Z" fill="#0A64D6"/>
<path d="M12.5581 29.7674H1.39535C0.632558 29.7674 0 29.1349 0 28.3721C0 27.6093 0.632558 26.9767 1.39535 26.9767H12.5581C13.3209 26.9767 13.9535 27.6093 13.9535 28.3721C13.9535 29.1349 13.3209 29.7674 12.5581 29.7674Z" fill="#0A64D6"/>
<path d="M23.7209 36.279C19.3675 36.279 15.814 32.7256 15.814 28.3721C15.814 24.0186 19.3675 20.4651 23.7209 20.4651C28.0744 20.4651 31.6279 24.0186 31.6279 28.3721C31.6279 32.7256 28.0744 36.279 23.7209 36.279ZM23.7209 23.2558C20.893 23.2558 18.6047 25.5442 18.6047 28.3721C18.6047 31.2 20.893 33.4883 23.7209 33.4883C26.5489 33.4883 28.8372 31.2 28.8372 28.3721C28.8372 25.5442 26.5489 23.2558 23.7209 23.2558Z" fill="#0A64D6"/>
</svg>
