<svg width="19" height="17" viewBox="0 0 19 17" fill="none" xmlns="http://www.w3.org/2000/svg">
<g clip-path="url(#clip0_1_95)">
<path d="M18.9172 7.30103L10.2458 0.264954C10.0351 0.0927576 9.77191 -0.00122833 9.50048 -0.00122833C9.22906 -0.00122833 8.96589 0.0927576 8.75516 0.264954L0.0837725 7.30103C0.0608651 7.31944 0.0418196 7.34225 0.0277417 7.36813C0.0136639 7.39401 0.00483431 7.42245 0.00176548 7.4518C-0.00130335 7.48115 0.00144976 7.51081 0.00986498 7.53908C0.0182802 7.56734 0.0321899 7.59365 0.0507864 7.61646L0.519189 8.19751C0.537803 8.22064 0.560764 8.23985 0.586759 8.25403C0.612754 8.26822 0.641273 8.27711 0.670684 8.2802C0.700095 8.28328 0.729822 8.2805 0.758164 8.27201C0.786505 8.26352 0.812906 8.24948 0.835856 8.23071L2.11143 7.19511V16.4681C2.11143 16.609 2.16703 16.7441 2.26601 16.8437C2.36499 16.9434 2.49923 16.9993 2.63921 16.9993H16.3614C16.5014 16.9993 16.6356 16.9434 16.7346 16.8437C16.8336 16.7441 16.8892 16.609 16.8892 16.4681V7.19843L18.1691 8.23736C18.2155 8.27518 18.2749 8.29292 18.3342 8.2867C18.3936 8.28047 18.4481 8.25078 18.4857 8.20415L18.9538 7.6231C18.9895 7.57477 19.0055 7.51459 18.9987 7.45478C18.9919 7.39497 18.9628 7.34 18.9172 7.30103ZM7.91699 15.9368V10.6243H11.0837V15.9368H7.91699ZM15.8337 15.9368H12.1392V10.0931C12.1392 9.95218 12.0836 9.81706 11.9846 9.71743C11.8856 9.6178 11.7514 9.56183 11.6114 9.56183H7.38921C7.24923 9.56183 7.11499 9.6178 7.01601 9.71743C6.91704 9.81706 6.86143 9.95218 6.86143 10.0931V15.9368H3.16698V6.33847L9.35881 1.31152C9.39789 1.27931 9.44684 1.26171 9.49735 1.26171C9.54786 1.26171 9.59681 1.27931 9.63589 1.31152L15.8337 6.34112V15.9368Z" fill="white"/>
</g>
<defs>
<clipPath id="clip0_1_95">
<rect width="19" height="17" fill="white"/>
</clipPath>
</defs>
</svg>
