<svg width="30" height="30" viewBox="0 0 30 30" fill="none" xmlns="http://www.w3.org/2000/svg">
<path d="M11.0162 26.5625H3.00872C1.44622 26.5625 0.0787207 25.43 0.0012207 23.8275C2.34497 22.07 3.82997 19.8825 4.80622 17.46C5.74372 15.0375 6.09497 12.3813 6.29122 9.56876C6.44747 7.65501 7.69747 5.93626 9.41622 4.64626C10.3925 3.94251 11.4475 3.35751 12.5412 3.00501C12.5412 2.88751 12.4625 2.77001 12.4625 2.69251C12.4625 1.28625 13.595 0.192505 15.0012 0.192505C16.4075 0.192505 17.54 1.28625 17.54 2.69251C17.54 2.77126 17.4612 2.92751 17.4612 3.00501C18.555 3.35626 19.6487 3.94251 20.625 4.60626C22.3437 5.85626 23.7112 7.57501 23.7112 9.45001C23.8675 12.2238 24.2975 14.9975 25.2737 17.4188C26.25 19.88 27.735 22.1063 30 23.825C29.9212 25.4263 28.555 26.56 26.9925 26.56H18.985C18.5937 28.435 16.9925 29.8025 15.04 29.8025C13.0875 29.8025 11.4462 28.435 11.0162 26.56V26.5625ZM4.02372 23.8288H25.9775C24.22 21.875 23.0087 19.6488 22.305 17.2663C21.5625 14.9225 21.2112 12.4225 21.055 9.84376C20.9762 8.59376 20 7.46126 18.7887 6.60126C17.6162 5.74126 16.21 5.27251 15.0387 5.27251C13.945 5.27251 12.5 5.82001 11.25 6.60126C10.0387 7.38251 9.02372 8.55501 8.98372 9.72626C8.86622 12.265 8.47622 14.805 7.77247 17.1875C6.99122 19.61 5.74122 21.875 4.02247 23.8288H4.02372ZM15.0387 28.555C15.2337 28.555 15.3125 28.4375 15.3125 28.2425C15.3125 28.0075 15.2337 27.8913 15.0387 27.8913C13.7887 27.8913 12.8512 26.915 12.8512 25.7038C12.8512 25.4688 12.7337 25.3525 12.5387 25.3525C12.3037 25.3525 12.1475 25.47 12.1475 25.7038C12.1475 27.2663 13.4362 28.555 15.0387 28.555Z" fill="#FF0000"/>
</svg>
