<svg width="40" height="40" viewBox="0 0 40 40" fill="none" xmlns="http://www.w3.org/2000/svg">
<path d="M16.0162 31.5625H8.00872C6.44622 31.5625 5.07872 30.43 5.00122 28.8275C7.34497 27.07 8.82997 24.8825 9.80622 22.46C10.7437 20.0375 11.095 17.3813 11.2912 14.5688C11.4475 12.655 12.6975 10.9363 14.4162 9.64626C15.3925 8.94251 16.4475 8.35751 17.5412 8.00501C17.5412 7.88751 17.4625 7.77001 17.4625 7.69251C17.4625 6.28626 18.595 5.1925 20.0012 5.1925C21.4075 5.1925 22.54 6.28626 22.54 7.69251C22.54 7.77126 22.4612 7.92751 22.4612 8.00501C23.555 8.35626 24.6487 8.94251 25.625 9.60626C27.3437 10.8563 28.7112 12.575 28.7112 14.45C28.8675 17.2238 29.2975 19.9975 30.2737 22.4188C31.25 24.88 32.735 27.1063 35 28.825C34.9212 30.4263 33.555 31.56 31.9925 31.56H23.985C23.5937 33.435 21.9925 34.8025 20.04 34.8025C18.0875 34.8025 16.4462 33.435 16.0162 31.56V31.5625ZM9.02372 28.8288H30.9775C29.22 26.875 28.0087 24.6488 27.305 22.2663C26.5625 19.9225 26.2112 17.4225 26.055 14.8438C25.9762 13.5938 25 12.4613 23.7887 11.6013C22.6162 10.7413 21.21 10.2725 20.0387 10.2725C18.945 10.2725 17.5 10.82 16.25 11.6013C15.0387 12.3825 14.0237 13.555 13.9837 14.7263C13.8662 17.265 13.4762 19.805 12.7725 22.1875C11.9912 24.61 10.7412 26.875 9.02247 28.8288H9.02372ZM20.0387 33.555C20.2337 33.555 20.3125 33.4375 20.3125 33.2425C20.3125 33.0075 20.2337 32.8913 20.0387 32.8913C18.7887 32.8913 17.8512 31.915 17.8512 30.7038C17.8512 30.4688 17.7337 30.3525 17.5387 30.3525C17.3037 30.3525 17.1475 30.47 17.1475 30.7038C17.1475 32.2663 18.4362 33.555 20.0387 33.555Z" fill="white"/>
</svg>
