<svg width="40" height="40" viewBox="0 0 40 40" fill="none" xmlns="http://www.w3.org/2000/svg">
<path fill-rule="evenodd" clip-rule="evenodd" d="M6.66671 16.1741C7.42288 16.7723 8.24954 17.2797 9.08121 17.6955C12.1507 19.2302 16.0799 20 20 20C23.9203 20 27.8493 19.2302 30.9188 17.6955C31.7506 17.2797 32.5772 16.7723 33.3334 16.1741V20C33.3334 21.7625 31.9366 23.4598 29.4281 24.714C26.9277 25.9643 23.5363 26.6667 20 26.6667C16.4637 26.6667 13.0724 25.9643 10.5719 24.714C8.06354 23.4598 6.66671 21.7625 6.66671 20V16.1741ZM6.66671 26.174C7.42288 26.7723 8.24954 27.2797 9.08121 27.6955C12.1507 29.2302 16.0799 30 20 30C23.9203 30 27.8493 29.2302 30.9188 27.6955C31.7506 27.2797 32.5772 26.7723 33.3334 26.174V30C33.3334 33.6818 27.3638 36.6667 20 36.6667C12.6362 36.6667 6.66671 33.6818 6.66671 30V26.174ZM6.66671 10C6.66671 6.31811 12.6362 3.33334 20 3.33334C27.3638 3.33334 33.3334 6.31811 33.3334 10C33.3334 11.7625 31.9366 13.4598 29.4281 14.7141C26.9277 15.9643 23.5363 16.6667 20 16.6667C16.4637 16.6667 13.0724 15.9643 10.5719 14.7141C8.06354 13.4598 6.66671 11.7625 6.66671 10Z" fill="#F6C762"/>
</svg>
