<svg width="25" height="25" viewBox="0 0 25 25" fill="none" xmlns="http://www.w3.org/2000/svg">
<path d="M23.8512 17.2822C23.6527 16.9472 23.0944 16.4261 21.7048 16.6743C20.9356 16.8108 20.154 16.8728 19.3723 16.8356C16.4815 16.7115 13.8636 15.3839 12.0398 13.3368C10.4269 11.5378 9.43434 9.19283 9.42194 6.6618C9.42194 5.2474 9.69485 3.88263 10.2532 2.5923C10.7991 1.33919 10.4145 0.681621 10.1415 0.408667C9.85614 0.123306 9.1862 -0.273718 7.87106 0.27219C2.79659 2.40619 -0.342379 7.49307 0.0298316 12.9398C0.402042 18.0639 4.00007 22.4435 8.76436 24.0937C9.90577 24.4907 11.1093 24.7264 12.35 24.776C12.5485 24.7885 12.747 24.8009 12.9455 24.8009C17.1018 24.8009 20.9976 22.8406 23.4542 19.5031C24.2855 18.3492 24.0622 17.6172 23.8512 17.2822Z" fill="#292D32"/>
</svg>
