<svg width="20" height="20" viewBox="0 0 20 20" fill="none" xmlns="http://www.w3.org/2000/svg">
<path d="M17.17 15.5437L19.3644 17.2087C19.8419 15.9694 19.4894 14.5144 18.3775 13.6706C17.5225 13.0219 16.435 12.8906 15.4963 13.225L15.1638 12.9731L15.12 12.8906C15.3513 12.5619 15.5519 12.2181 15.7206 11.8631L17.2313 11.8212L17.5406 10.8337L16.32 9.93499C16.3794 9.56562 16.4088 9.19187 16.4094 8.81874L17.7638 8.13124L17.6206 7.10624L16.1256 6.81374C16.0006 6.38374 15.8344 5.96249 15.6269 5.55687L16.5181 4.32374L15.9219 3.47749L14.455 3.90374C14.4369 3.88437 14.4188 3.86499 14.4 3.84562C14.1656 3.60312 13.9181 3.38124 13.66 3.17937L13.9419 1.72874L13.045 1.21187L11.9319 2.18124C11.5713 2.03624 11.2013 1.92187 10.8263 1.83812L10.4613 0.406244L9.4294 0.321869L8.83502 1.67937C8.52752 1.69812 8.22127 1.73624 7.91752 1.79499L7.00877 0.621869L6.02877 0.954994L6.02377 2.44874C5.60877 2.66249 5.2094 2.91937 4.83377 3.22124L3.44939 2.59749L2.74064 3.35187L3.44939 4.69624C3.22064 5.02187 3.02252 5.36312 2.85502 5.71499L1.33439 5.75687L1.02502 6.74437L2.25377 7.64937C2.19502 8.01562 2.16502 8.38624 2.16377 8.75687L0.80127 9.44812L0.944395 10.4731L2.44064 10.7656C2.53002 11.0769 2.64002 11.3837 2.77252 11.6831L1.78502 12.9075L2.33564 13.7837L3.86877 13.4256C3.96502 13.5387 4.06564 13.65 4.17002 13.7581C4.39064 13.9862 4.62189 14.1962 4.86189 14.3881L4.56377 15.925L5.46065 16.4419L6.63127 15.4219C6.96752 15.5569 7.3119 15.665 7.6619 15.7462L8.0444 17.2469L9.07627 17.3312L9.69565 15.9169C10.1244 15.8912 10.5513 15.8269 10.9713 15.7244L11.9563 16.865L12.9175 16.48L12.8656 15.4269L13.4744 15.8887C13.4025 16.8869 13.8138 17.9094 14.6675 18.5581C15.7788 19.4012 17.275 19.3494 18.3406 18.5556L16.1469 16.8912C15.76 16.5981 15.6706 16.0425 15.9519 15.6712C16.2331 15.3 16.7819 15.2512 17.1681 15.545L17.17 15.5437ZM8.65315 14.335C7.41252 14.195 6.22064 13.635 5.28564 12.6669C3.14752 10.4556 3.20877 6.93749 5.42065 4.79999C7.63252 2.66249 11.1519 2.69999 13.2894 4.91124C15.1719 6.85812 15.3475 9.83499 13.8538 11.9787L10.215 9.21812C10.2838 8.22499 9.8644 7.21187 9.01002 6.56374C7.89877 5.72062 6.40252 5.77249 5.33689 6.56624L7.53065 8.23062C7.9169 8.52374 8.01815 9.06437 7.7369 9.43624C7.45565 9.80812 6.89565 9.87124 6.5094 9.57749L4.31564 7.91312C3.83877 9.15249 4.19064 10.6075 5.30252 11.4512C6.1569 12.0987 7.25315 12.2194 8.19502 11.8812L11.0806 14.0706C10.2969 14.3381 9.4669 14.4262 8.65377 14.3344L8.65315 14.335Z" fill="white"/>
</svg>
