<svg width="28" height="28" viewBox="0 0 28 28" fill="none" xmlns="http://www.w3.org/2000/svg">
<path d="M13.5776 22.5266C8.64025 22.5266 4.62866 18.515 4.62866 13.5777C4.62866 8.64034 8.64025 4.62875 13.5776 4.62875C18.5149 4.62875 22.5265 8.64034 22.5265 13.5777C22.5265 18.515 18.5149 22.5266 13.5776 22.5266ZM13.5776 6.48025C9.66475 6.48025 6.48016 9.66484 6.48016 13.5777C6.48016 17.4905 9.66475 20.6751 13.5776 20.6751C17.4904 20.6751 20.675 17.4905 20.675 13.5777C20.675 9.66484 17.4904 6.48025 13.5776 6.48025Z" fill="#292D32"/>
<path d="M13.5777 27.106C12.8988 27.106 12.3433 26.5999 12.3433 25.921V25.8223C12.3433 25.1434 12.8988 24.5879 13.5777 24.5879C14.2566 24.5879 14.812 25.1434 14.812 25.8223C14.812 26.5012 14.2566 27.106 13.5777 27.106ZM22.3908 23.6252C22.0699 23.6252 21.7613 23.5017 21.5144 23.2672L21.354 23.1067C20.8726 22.6253 20.8726 21.8477 21.354 21.3663C21.8354 20.8849 22.613 20.8849 23.0944 21.3663L23.2549 21.5268C23.7362 22.0082 23.7362 22.7858 23.2549 23.2672C23.0203 23.5017 22.7117 23.6252 22.3908 23.6252ZM4.76453 23.6252C4.4436 23.6252 4.13502 23.5017 3.88815 23.2672C3.40676 22.7858 3.40676 22.0082 3.88815 21.5268L4.04862 21.3663C4.53001 20.8849 5.30764 20.8849 5.78903 21.3663C6.27042 21.8477 6.27042 22.6253 5.78903 23.1067L5.62856 23.2672C5.39404 23.5017 5.07311 23.6252 4.76453 23.6252ZM25.921 14.812H25.8223C25.1434 14.812 24.5879 14.2566 24.5879 13.5777C24.5879 12.8988 25.1434 12.3433 25.8223 12.3433C26.5012 12.3433 27.106 12.8988 27.106 13.5777C27.106 14.2566 26.5999 14.812 25.921 14.812ZM1.33308 14.812H1.23433C0.55545 14.812 0 14.2566 0 13.5777C0 12.8988 0.55545 12.3433 1.23433 12.3433C1.91322 12.3433 2.51804 12.8988 2.51804 13.5777C2.51804 14.2566 2.01196 14.812 1.33308 14.812ZM22.2304 6.15933C21.9094 6.15933 21.6008 6.03589 21.354 5.80137C20.8726 5.31998 20.8726 4.54235 21.354 4.06096L21.5144 3.9005C21.9958 3.41911 22.7735 3.41911 23.2549 3.9005C23.7362 4.38189 23.7362 5.15952 23.2549 5.64091L23.0944 5.80137C22.8599 6.03589 22.5513 6.15933 22.2304 6.15933ZM4.92499 6.15933C4.60407 6.15933 4.29548 6.03589 4.04862 5.80137L3.88815 5.62856C3.40676 5.14717 3.40676 4.36954 3.88815 3.88815C4.36954 3.40676 5.14717 3.40676 5.62856 3.88815L5.78903 4.04862C6.27042 4.53001 6.27042 5.30764 5.78903 5.78903C5.5545 6.03589 5.23358 6.15933 4.92499 6.15933ZM13.5777 2.51804C12.8988 2.51804 12.3433 2.01196 12.3433 1.33308V1.23433C12.3433 0.55545 12.8988 0 13.5777 0C14.2566 0 14.812 0.55545 14.812 1.23433C14.812 1.91322 14.2566 2.51804 13.5777 2.51804Z" fill="#292D32"/>
</svg>
