<svg width="20" height="21" viewBox="0 0 20 21" fill="none" xmlns="http://www.w3.org/2000/svg">
<path d="M8.79999 10.3917C8.18193 10.3917 7.57774 10.2084 7.06383 9.865C6.54993 9.52167 6.14939 9.03358 5.91287 8.46255C5.67634 7.89153 5.61446 7.2632 5.73503 6.65701C5.85562 6.05082 6.15324 5.49399 6.59028 5.05696C7.02732 4.61992 7.58414 4.32229 8.19033 4.20171C8.79649 4.08113 9.42482 4.14302 9.99591 4.37954C10.5669 4.61607 11.055 5.0166 11.3983 5.53051C11.7417 6.04441 11.925 6.6486 11.925 7.26667C11.9228 8.09479 11.5928 8.88833 11.0072 9.47392C10.4217 10.0595 9.62816 10.3895 8.79999 10.3917ZM8.79999 5.39167C8.42916 5.39167 8.06664 5.50163 7.7583 5.70766C7.44996 5.91368 7.20963 6.20652 7.06772 6.54913C6.9258 6.89174 6.88868 7.26874 6.96102 7.63246C7.03337 7.99618 7.21194 8.33027 7.47417 8.59249C7.73639 8.85475 8.07048 9.03325 8.43416 9.10567C8.79791 9.178 9.17491 9.14083 9.51749 8.99892C9.86016 8.857 10.153 8.6167 10.359 8.30836C10.565 8.00002 10.675 7.6375 10.675 7.26667C10.675 6.76938 10.4774 6.29247 10.1258 5.94084C9.77416 5.58921 9.29724 5.39167 8.79999 5.39167Z" fill="black"/>
<path d="M2.96667 16.225C2.80092 16.225 2.64194 16.1592 2.52473 16.0419C2.40752 15.9247 2.34167 15.7657 2.34167 15.6C2.34167 11.6417 6.86668 11.6417 8.80001 11.6417C9.40001 11.6417 9.93334 11.6417 10.4167 11.7C10.5811 11.7127 10.7338 11.79 10.8415 11.9149C10.9492 12.0397 11.0032 12.2022 10.9917 12.3667C10.9768 12.5317 10.8978 12.6845 10.7716 12.792C10.6453 12.8995 10.4821 12.9532 10.3167 12.9417C9.86667 12.9417 9.36667 12.8917 8.80001 12.8917C4.48334 12.8917 3.59167 13.975 3.59167 15.6C3.59279 15.6824 3.57739 15.7642 3.54638 15.8405C3.51537 15.9168 3.46937 15.9862 3.41112 16.0444C3.35285 16.1027 3.28351 16.1487 3.20717 16.1797C3.13083 16.2107 3.04906 16.2261 2.96667 16.225Z" fill="black"/>
<path d="M10.5583 16.8583C10.3926 16.8583 10.2338 16.7923 10.1167 16.675C10.0508 16.6123 10.0002 16.5355 9.96843 16.4503C9.9366 16.3652 9.92468 16.2738 9.93335 16.1833L10.0667 14.5833C10.0769 14.4363 10.1389 14.2975 10.2417 14.1917L14.8417 9.59167C15.159 9.29767 15.5757 9.13434 16.0083 9.13434C16.4409 9.13434 16.8576 9.29767 17.175 9.59167C17.3315 9.74942 17.4548 9.93684 17.5378 10.1429C17.6208 10.349 17.6618 10.5696 17.6583 10.7917C17.6616 10.9965 17.6242 11.1998 17.5484 11.3901C17.4726 11.5803 17.3598 11.7537 17.2167 11.9L12.6167 16.5C12.5147 16.6047 12.3788 16.6696 12.2333 16.6833L10.6167 16.8333L10.5583 16.8583ZM11.2917 14.9083L11.2417 15.5417L11.8917 15.4833L16.3333 11.0417C16.3858 10.9788 16.4126 10.8985 16.4083 10.8167C16.408 10.7007 16.3667 10.5885 16.2917 10.5C16.2098 10.4392 16.1104 10.4063 16.0083 10.4063C15.9063 10.4063 15.8069 10.4392 15.725 10.5L11.2917 14.9083Z" fill="black"/>
</svg>
